<?xml version="1.0" encoding="utf-8"?>
<svg viewBox="0 0 420 90" width="420" height="90" xmlns="http://www.w3.org/2000/svg">
  <g transform="matrix(1.0000000298023222, 0, 0, 1.0000000298023222, 9.820312792668114, -5.363499324426031)">
    <circle cx="18.869" cy="28.494" r="12.767" style="fill: rgb(46, 138, 150);"/>
    <path d="M 48.443 72.14 C 49.586 72.14 50.744 71.704 51.616 70.831 L 68.06 54.394 C 69.805 52.65 69.812 49.82 68.067 48.076 C 66.322 46.33 63.494 46.33 61.748 48.076 L 48.471 61.147 C 48.471 61.147 34.283 45 30.645 45 C 27.007 45 9.612 45 9.612 45 C 5.4 45 1 48.857 1 53.07 L 1 85 L 34 85 L 34 60.665 L 44.739 70.831 C 45.612 71.704 47.3 72.14 48.443 72.14 Z" style="fill: rgb(46, 138, 150);"/>
    <polygon points="44 16 44 49.221 47.983 53.428 51 50.421 51 24 92 24 92 78 44 78 44 85 99 85 99 16" style="fill: rgb(46, 138, 150);"/>
  </g>
  <path d="M 130.628 62.364 L 130.628 62.364 C 129.621 62.364 128.815 62.054 128.208 61.434 L 128.208 61.434 L 128.208 61.434 C 127.601 60.807 127.298 59.991 127.298 58.984 L 127.298 58.984 L 127.298 28.464 L 127.298 28.464 C 127.298 27.457 127.601 26.651 128.208 26.044 L 128.208 26.044 L 128.208 26.044 C 128.815 25.437 129.621 25.134 130.628 25.134 L 130.628 25.134 L 130.628 25.134 C 131.668 25.134 132.491 25.437 133.098 26.044 L 133.098 26.044 L 133.098 26.044 C 133.705 26.651 134.008 27.457 134.008 28.464 L 134.008 28.464 L 134.008 58.984 L 134.008 58.984 C 134.008 59.991 133.705 60.807 133.098 61.434 L 133.098 61.434 L 133.098 61.434 C 132.491 62.054 131.668 62.364 130.628 62.364 L 130.628 62.364 ZM 156.11 36.004 L 156.11 36.004 C 159.157 36.004 161.427 36.871 162.92 38.604 L 162.92 38.604 L 162.92 38.604 C 164.413 40.337 165.16 42.954 165.16 46.454 L 165.16 46.454 L 165.16 59.244 L 165.16 59.244 C 165.16 60.217 164.873 60.981 164.3 61.534 L 164.3 61.534 L 164.3 61.534 C 163.727 62.087 162.937 62.364 161.93 62.364 L 161.93 62.364 L 161.93 62.364 C 160.923 62.364 160.127 62.087 159.54 61.534 L 159.54 61.534 L 159.54 61.534 C 158.953 60.981 158.66 60.217 158.66 59.244 L 158.66 59.244 L 158.66 46.814 L 158.66 46.814 C 158.66 44.841 158.287 43.404 157.54 42.504 L 157.54 42.504 L 157.54 42.504 C 156.793 41.604 155.623 41.154 154.03 41.154 L 154.03 41.154 L 154.03 41.154 C 152.157 41.154 150.657 41.741 149.53 42.914 L 149.53 42.914 L 149.53 42.914 C 148.403 44.094 147.84 45.674 147.84 47.654 L 147.84 47.654 L 147.84 59.244 L 147.84 59.244 C 147.84 60.217 147.547 60.981 146.96 61.534 L 146.96 61.534 L 146.96 61.534 C 146.367 62.087 145.567 62.364 144.56 62.364 L 144.56 62.364 L 144.56 62.364 C 143.56 62.364 142.773 62.087 142.2 61.534 L 142.2 61.534 L 142.2 61.534 C 141.627 60.981 141.34 60.217 141.34 59.244 L 141.34 59.244 L 141.34 39.124 L 141.34 39.124 C 141.34 38.224 141.633 37.494 142.22 36.934 L 142.22 36.934 L 142.22 36.934 C 142.813 36.381 143.613 36.104 144.62 36.104 L 144.62 36.104 L 144.62 36.104 C 145.52 36.104 146.257 36.374 146.83 36.914 L 146.83 36.914 L 146.83 36.914 C 147.397 37.447 147.68 38.147 147.68 39.014 L 147.68 39.014 L 147.68 40.424 L 147.68 40.424 C 148.547 39.004 149.71 37.911 151.17 37.144 L 151.17 37.144 L 151.17 37.144 C 152.623 36.384 154.27 36.004 156.11 36.004 L 156.11 36.004 ZM 180.96 62.474 L 180.96 62.474 C 177.187 62.474 174.137 61.727 171.81 60.234 L 171.81 60.234 L 171.81 60.234 C 170.703 59.574 170.15 58.637 170.15 57.424 L 170.15 57.424 L 170.15 57.424 C 170.15 56.731 170.34 56.167 170.72 55.734 L 170.72 55.734 L 170.72 55.734 C 171.1 55.301 171.567 55.084 172.12 55.084 L 172.12 55.084 L 172.12 55.084 C 172.713 55.084 173.53 55.361 174.57 55.914 L 174.57 55.914 L 174.57 55.914 C 175.677 56.434 176.69 56.834 177.61 57.114 L 177.61 57.114 L 177.61 57.114 C 178.53 57.394 179.7 57.534 181.12 57.534 L 181.12 57.534 L 181.12 57.534 C 182.573 57.534 183.71 57.291 184.53 56.804 L 184.53 56.804 L 184.53 56.804 C 185.343 56.317 185.75 55.641 185.75 54.774 L 185.75 54.774 L 185.75 54.774 C 185.75 54.187 185.583 53.721 185.25 53.374 L 185.25 53.374 L 185.25 53.374 C 184.923 53.027 184.337 52.704 183.49 52.404 L 183.49 52.404 L 183.49 52.404 C 182.637 52.111 181.343 51.774 179.61 51.394 L 179.61 51.394 L 179.61 51.394 C 176.523 50.767 174.313 49.884 172.98 48.744 L 172.98 48.744 L 172.98 48.744 C 171.647 47.597 170.98 46.021 170.98 44.014 L 170.98 44.014 L 170.98 44.014 C 170.98 42.487 171.43 41.107 172.33 39.874 L 172.33 39.874 L 172.33 39.874 C 173.23 38.647 174.47 37.694 176.05 37.014 L 176.05 37.014 L 176.05 37.014 C 177.63 36.341 179.423 36.004 181.43 36.004 L 181.43 36.004 L 181.43 36.004 C 182.89 36.004 184.293 36.184 185.64 36.544 L 185.64 36.544 L 185.64 36.544 C 186.993 36.911 188.207 37.441 189.28 38.134 L 189.28 38.134 L 189.28 38.134 C 190.393 38.827 190.95 39.747 190.95 40.894 L 190.95 40.894 L 190.95 40.894 C 190.95 41.587 190.76 42.167 190.38 42.634 L 190.38 42.634 L 190.38 42.634 C 189.993 43.101 189.523 43.334 188.97 43.334 L 188.97 43.334 L 188.97 43.334 C 188.59 43.334 188.217 43.257 187.85 43.104 L 187.85 43.104 L 187.85 43.104 C 187.49 42.944 187.033 42.707 186.48 42.394 L 186.48 42.394 L 186.48 42.394 C 185.473 41.874 184.607 41.484 183.88 41.224 L 183.88 41.224 L 183.88 41.224 C 183.147 40.964 182.243 40.834 181.17 40.834 L 181.17 40.834 L 181.17 40.834 C 179.89 40.834 178.877 41.094 178.13 41.614 L 178.13 41.614 L 178.13 41.614 C 177.383 42.134 177.01 42.847 177.01 43.754 L 177.01 43.754 L 177.01 43.754 C 177.01 44.621 177.393 45.277 178.16 45.724 L 178.16 45.724 L 178.16 45.724 C 178.92 46.177 180.393 46.627 182.58 47.074 L 182.58 47.074 L 182.58 47.074 C 184.9 47.561 186.72 48.117 188.04 48.744 L 188.04 48.744 L 188.04 48.744 C 189.353 49.364 190.297 50.144 190.87 51.084 L 190.87 51.084 L 190.87 51.084 C 191.443 52.017 191.73 53.214 191.73 54.674 L 191.73 54.674 L 191.73 54.674 C 191.73 57.027 190.75 58.914 188.79 60.334 L 188.79 60.334 L 188.79 60.334 C 186.83 61.761 184.22 62.474 180.96 62.474 L 180.96 62.474 ZM 209.93 57.534 L 209.93 57.534 C 211.663 57.634 212.53 58.414 212.53 59.874 L 212.53 59.874 L 212.53 59.874 C 212.53 60.701 212.19 61.331 211.51 61.764 L 211.51 61.764 L 211.51 61.764 C 210.837 62.197 209.877 62.381 208.63 62.314 L 208.63 62.314 L 207.22 62.214 L 207.22 62.214 C 201.4 61.794 198.49 58.674 198.49 52.854 L 198.49 52.854 L 198.49 41.514 L 195.89 41.514 L 195.89 41.514 C 194.95 41.514 194.23 41.307 193.73 40.894 L 193.73 40.894 L 193.73 40.894 C 193.23 40.474 192.98 39.867 192.98 39.074 L 192.98 39.074 L 192.98 39.074 C 192.98 38.274 193.23 37.667 193.73 37.254 L 193.73 37.254 L 193.73 37.254 C 194.23 36.834 194.95 36.624 195.89 36.624 L 195.89 36.624 L 198.49 36.624 L 198.49 31.844 L 198.49 31.844 C 198.49 30.904 198.783 30.157 199.37 29.604 L 199.37 29.604 L 199.37 29.604 C 199.963 29.051 200.76 28.774 201.76 28.774 L 201.76 28.774 L 201.76 28.774 C 202.733 28.774 203.513 29.051 204.1 29.604 L 204.1 29.604 L 204.1 29.604 C 204.693 30.157 204.99 30.904 204.99 31.844 L 204.99 31.844 L 204.99 36.624 L 209.41 36.624 L 209.41 36.624 C 210.343 36.624 211.063 36.834 211.57 37.254 L 211.57 37.254 L 211.57 37.254 C 212.07 37.667 212.32 38.274 212.32 39.074 L 212.32 39.074 L 212.32 39.074 C 212.32 39.867 212.07 40.474 211.57 40.894 L 211.57 40.894 L 211.57 40.894 C 211.063 41.307 210.343 41.514 209.41 41.514 L 209.41 41.514 L 204.99 41.514 L 204.99 53.314 L 204.99 53.314 C 204.99 55.881 206.167 57.251 208.52 57.424 L 208.52 57.424 L 209.93 57.534 ZM 230.108 36.104 L 230.108 36.104 C 231.008 36.037 231.718 36.227 232.238 36.674 L 232.238 36.674 L 232.238 36.674 C 232.758 37.127 233.018 37.804 233.018 38.704 L 233.018 38.704 L 233.018 38.704 C 233.018 39.644 232.791 40.337 232.338 40.784 L 232.338 40.784 L 232.338 40.784 C 231.891 41.237 231.078 41.534 229.898 41.674 L 229.898 41.674 L 228.338 41.824 L 228.338 41.824 C 226.291 42.031 224.791 42.724 223.838 43.904 L 223.838 43.904 L 223.838 43.904 C 222.885 45.084 222.408 46.557 222.408 48.324 L 222.408 48.324 L 222.408 59.244 L 222.408 59.244 C 222.408 60.251 222.095 61.024 221.468 61.564 L 221.468 61.564 L 221.468 61.564 C 220.848 62.097 220.068 62.364 219.128 62.364 L 219.128 62.364 L 219.128 62.364 C 218.195 62.364 217.425 62.097 216.818 61.564 L 216.818 61.564 L 216.818 61.564 C 216.211 61.024 215.908 60.251 215.908 59.244 L 215.908 59.244 L 215.908 39.124 L 215.908 39.124 C 215.908 38.151 216.211 37.404 216.818 36.884 L 216.818 36.884 L 216.818 36.884 C 217.425 36.364 218.178 36.104 219.078 36.104 L 219.078 36.104 L 219.078 36.104 C 219.978 36.104 220.708 36.357 221.268 36.864 L 221.268 36.864 L 221.268 36.864 C 221.821 37.364 222.098 38.081 222.098 39.014 L 222.098 39.014 L 222.098 41.094 L 222.098 41.094 C 222.758 39.574 223.738 38.397 225.038 37.564 L 225.038 37.564 L 225.038 37.564 C 226.338 36.731 227.785 36.261 229.378 36.154 L 229.378 36.154 L 230.108 36.104 ZM 255.894 36.104 L 255.894 36.104 C 256.901 36.104 257.697 36.381 258.284 36.934 L 258.284 36.934 L 258.284 36.934 C 258.877 37.494 259.174 38.241 259.174 39.174 L 259.174 39.174 L 259.174 59.354 L 259.174 59.354 C 259.174 60.254 258.871 60.981 258.264 61.534 L 258.264 61.534 L 258.264 61.534 C 257.657 62.087 256.867 62.364 255.894 62.364 L 255.894 62.364 L 255.894 62.364 C 254.961 62.364 254.217 62.104 253.664 61.584 L 253.664 61.584 L 253.664 61.584 C 253.104 61.064 252.824 60.354 252.824 59.454 L 252.824 59.454 L 252.824 58.154 L 252.824 58.154 C 252.031 59.541 250.957 60.607 249.604 61.354 L 249.604 61.354 L 249.604 61.354 C 248.251 62.101 246.724 62.474 245.024 62.474 L 245.024 62.474 L 245.024 62.474 C 238.784 62.474 235.664 58.971 235.664 51.964 L 235.664 51.964 L 235.664 39.174 L 235.664 39.174 C 235.664 38.241 235.961 37.494 236.554 36.934 L 236.554 36.934 L 236.554 36.934 C 237.141 36.381 237.921 36.104 238.894 36.104 L 238.894 36.104 L 238.894 36.104 C 239.901 36.104 240.697 36.381 241.284 36.934 L 241.284 36.934 L 241.284 36.934 C 241.871 37.494 242.164 38.241 242.164 39.174 L 242.164 39.174 L 242.164 52.014 L 242.164 52.014 C 242.164 53.821 242.531 55.157 243.264 56.024 L 243.264 56.024 L 243.264 56.024 C 243.991 56.891 245.134 57.324 246.694 57.324 L 246.694 57.324 L 246.694 57.324 C 248.494 57.324 249.941 56.724 251.034 55.524 L 251.034 55.524 L 251.034 55.524 C 252.127 54.331 252.674 52.747 252.674 50.774 L 252.674 50.774 L 252.674 39.174 L 252.674 39.174 C 252.674 38.241 252.967 37.494 253.554 36.934 L 253.554 36.934 L 253.554 36.934 C 254.147 36.381 254.927 36.104 255.894 36.104 L 255.894 36.104 ZM 277.212 62.474 L 277.212 62.474 C 274.685 62.474 272.459 61.934 270.532 60.854 L 270.532 60.854 L 270.532 60.854 C 268.612 59.781 267.132 58.257 266.092 56.284 L 266.092 56.284 L 266.092 56.284 C 265.052 54.304 264.532 51.997 264.532 49.364 L 264.532 49.364 L 264.532 49.364 C 264.532 46.731 265.075 44.401 266.162 42.374 L 266.162 42.374 L 266.162 42.374 C 267.255 40.347 268.792 38.777 270.772 37.664 L 270.772 37.664 L 270.772 37.664 C 272.745 36.557 275.015 36.004 277.582 36.004 L 277.582 36.004 L 277.582 36.004 C 278.935 36.004 280.295 36.194 281.662 36.574 L 281.662 36.574 L 281.662 36.574 C 283.029 36.954 284.232 37.474 285.272 38.134 L 285.272 38.134 L 285.272 38.134 C 286.385 38.861 286.942 39.781 286.942 40.894 L 286.942 40.894 L 286.942 40.894 C 286.942 41.654 286.759 42.267 286.392 42.734 L 286.392 42.734 L 286.392 42.734 C 286.032 43.201 285.555 43.434 284.962 43.434 L 284.962 43.434 L 284.962 43.434 C 284.582 43.434 284.185 43.347 283.772 43.174 L 283.772 43.174 L 283.772 43.174 C 283.352 43.001 282.935 42.794 282.522 42.554 L 282.522 42.554 L 282.522 42.554 C 281.755 42.101 281.025 41.744 280.332 41.484 L 280.332 41.484 L 280.332 41.484 C 279.639 41.224 278.842 41.094 277.942 41.094 L 277.942 41.094 L 277.942 41.094 C 275.795 41.094 274.142 41.797 272.982 43.204 L 272.982 43.204 L 272.982 43.204 C 271.815 44.611 271.232 46.631 271.232 49.264 L 271.232 49.264 L 271.232 49.264 C 271.232 51.864 271.815 53.864 272.982 55.264 L 272.982 55.264 L 272.982 55.264 C 274.142 56.671 275.795 57.374 277.942 57.374 L 277.942 57.374 L 277.942 57.374 C 278.809 57.374 279.582 57.244 280.262 56.984 L 280.262 56.984 L 280.262 56.984 C 280.935 56.724 281.689 56.367 282.522 55.914 L 282.522 55.914 L 282.522 55.914 C 283.042 55.607 283.492 55.374 283.872 55.214 L 283.872 55.214 L 283.872 55.214 C 284.252 55.061 284.632 54.984 285.012 54.984 L 285.012 54.984 L 285.012 54.984 C 285.572 54.984 286.042 55.227 286.422 55.714 L 286.422 55.714 L 286.422 55.714 C 286.802 56.194 286.992 56.801 286.992 57.534 L 286.992 57.534 L 286.992 57.534 C 286.992 58.121 286.862 58.631 286.602 59.064 L 286.602 59.064 L 286.602 59.064 C 286.342 59.497 285.919 59.887 285.332 60.234 L 285.332 60.234 L 285.332 60.234 C 284.252 60.927 283.002 61.474 281.582 61.874 L 281.582 61.874 L 281.582 61.874 C 280.162 62.274 278.705 62.474 277.212 62.474 L 277.212 62.474 ZM 304.674 57.534 L 304.674 57.534 C 306.407 57.634 307.274 58.414 307.274 59.874 L 307.274 59.874 L 307.274 59.874 C 307.274 60.701 306.934 61.331 306.254 61.764 L 306.254 61.764 L 306.254 61.764 C 305.581 62.197 304.621 62.381 303.374 62.314 L 303.374 62.314 L 301.964 62.214 L 301.964 62.214 C 296.144 61.794 293.234 58.674 293.234 52.854 L 293.234 52.854 L 293.234 41.514 L 290.634 41.514 L 290.634 41.514 C 289.694 41.514 288.974 41.307 288.474 40.894 L 288.474 40.894 L 288.474 40.894 C 287.974 40.474 287.724 39.867 287.724 39.074 L 287.724 39.074 L 287.724 39.074 C 287.724 38.274 287.974 37.667 288.474 37.254 L 288.474 37.254 L 288.474 37.254 C 288.974 36.834 289.694 36.624 290.634 36.624 L 290.634 36.624 L 293.234 36.624 L 293.234 31.844 L 293.234 31.844 C 293.234 30.904 293.527 30.157 294.114 29.604 L 294.114 29.604 L 294.114 29.604 C 294.707 29.051 295.504 28.774 296.504 28.774 L 296.504 28.774 L 296.504 28.774 C 297.477 28.774 298.257 29.051 298.844 29.604 L 298.844 29.604 L 298.844 29.604 C 299.437 30.157 299.734 30.904 299.734 31.844 L 299.734 31.844 L 299.734 36.624 L 304.154 36.624 L 304.154 36.624 C 305.087 36.624 305.807 36.834 306.314 37.254 L 306.314 37.254 L 306.314 37.254 C 306.814 37.667 307.064 38.274 307.064 39.074 L 307.064 39.074 L 307.064 39.074 C 307.064 39.867 306.814 40.474 306.314 40.894 L 306.314 40.894 L 306.314 40.894 C 305.807 41.307 305.087 41.514 304.154 41.514 L 304.154 41.514 L 299.734 41.514 L 299.734 53.314 L 299.734 53.314 C 299.734 55.881 300.911 57.251 303.264 57.424 L 303.264 57.424 L 304.674 57.534 ZM 322.252 62.474 L 322.252 62.474 C 319.652 62.474 317.372 61.934 315.412 60.854 L 315.412 60.854 L 315.412 60.854 C 313.452 59.781 311.935 58.241 310.862 56.234 L 310.862 56.234 L 310.862 56.234 C 309.789 54.221 309.252 51.881 309.252 49.214 L 309.252 49.214 L 309.252 49.214 C 309.252 46.541 309.789 44.207 310.862 42.214 L 310.862 42.214 L 310.862 42.214 C 311.935 40.221 313.452 38.687 315.412 37.614 L 315.412 37.614 L 315.412 37.614 C 317.372 36.541 319.652 36.004 322.252 36.004 L 322.252 36.004 L 322.252 36.004 C 324.852 36.004 327.129 36.541 329.082 37.614 L 329.082 37.614 L 329.082 37.614 C 331.042 38.687 332.552 40.221 333.612 42.214 L 333.612 42.214 L 333.612 42.214 C 334.665 44.207 335.192 46.541 335.192 49.214 L 335.192 49.214 L 335.192 49.214 C 335.192 51.881 334.665 54.221 333.612 56.234 L 333.612 56.234 L 333.612 56.234 C 332.552 58.241 331.042 59.781 329.082 60.854 L 329.082 60.854 L 329.082 60.854 C 327.129 61.934 324.852 62.474 322.252 62.474 L 322.252 62.474 Z M 322.192 57.424 L 322.192 57.424 C 324.312 57.424 325.925 56.731 327.032 55.344 L 327.032 55.344 L 327.032 55.344 C 328.139 53.957 328.692 51.914 328.692 49.214 L 328.692 49.214 L 328.692 49.214 C 328.692 46.541 328.139 44.504 327.032 43.104 L 327.032 43.104 L 327.032 43.104 C 325.925 41.697 324.332 40.994 322.252 40.994 L 322.252 40.994 L 322.252 40.994 C 320.172 40.994 318.569 41.697 317.442 43.104 L 317.442 43.104 L 317.442 43.104 C 316.315 44.504 315.752 46.541 315.752 49.214 L 315.752 49.214 L 315.752 49.214 C 315.752 51.914 316.305 53.957 317.412 55.344 L 317.412 55.344 L 317.412 55.344 C 318.519 56.731 320.112 57.424 322.192 57.424 L 322.192 57.424 ZM 354.752 36.104 L 354.752 36.104 C 355.652 36.037 356.362 36.227 356.882 36.674 L 356.882 36.674 L 356.882 36.674 C 357.402 37.127 357.662 37.804 357.662 38.704 L 357.662 38.704 L 357.662 38.704 C 357.662 39.644 357.435 40.337 356.982 40.784 L 356.982 40.784 L 356.982 40.784 C 356.535 41.237 355.722 41.534 354.542 41.674 L 354.542 41.674 L 352.982 41.824 L 352.982 41.824 C 350.935 42.031 349.435 42.724 348.482 43.904 L 348.482 43.904 L 348.482 43.904 C 347.529 45.084 347.052 46.557 347.052 48.324 L 347.052 48.324 L 347.052 59.244 L 347.052 59.244 C 347.052 60.251 346.739 61.024 346.112 61.564 L 346.112 61.564 L 346.112 61.564 C 345.492 62.097 344.712 62.364 343.772 62.364 L 343.772 62.364 L 343.772 62.364 C 342.839 62.364 342.069 62.097 341.462 61.564 L 341.462 61.564 L 341.462 61.564 C 340.855 61.024 340.552 60.251 340.552 59.244 L 340.552 59.244 L 340.552 39.124 L 340.552 39.124 C 340.552 38.151 340.855 37.404 341.462 36.884 L 341.462 36.884 L 341.462 36.884 C 342.069 36.364 342.822 36.104 343.722 36.104 L 343.722 36.104 L 343.722 36.104 C 344.622 36.104 345.352 36.357 345.912 36.864 L 345.912 36.864 L 345.912 36.864 C 346.465 37.364 346.742 38.081 346.742 39.014 L 346.742 39.014 L 346.742 41.094 L 346.742 41.094 C 347.402 39.574 348.382 38.397 349.682 37.564 L 349.682 37.564 L 349.682 37.564 C 350.982 36.731 352.429 36.261 354.022 36.154 L 354.022 36.154 L 354.752 36.104 ZM 364.368 62.364 L 364.368 62.364 C 363.361 62.364 362.555 62.054 361.948 61.434 L 361.948 61.434 L 361.948 61.434 C 361.341 60.807 361.038 59.991 361.038 58.984 L 361.038 58.984 L 361.038 28.464 L 361.038 28.464 C 361.038 27.457 361.341 26.651 361.948 26.044 L 361.948 26.044 L 361.948 26.044 C 362.555 25.437 363.361 25.134 364.368 25.134 L 364.368 25.134 L 364.368 25.134 C 365.408 25.134 366.231 25.437 366.838 26.044 L 366.838 26.044 L 366.838 26.044 C 367.445 26.651 367.748 27.457 367.748 28.464 L 367.748 28.464 L 367.748 58.984 L 367.748 58.984 C 367.748 59.991 367.445 60.807 366.838 61.434 L 366.838 61.434 L 366.838 61.434 C 366.231 62.054 365.408 62.364 364.368 62.364 L 364.368 62.364 ZM 403.84 64.234 L 405.66 67.154 L 405.66 67.154 C 406.04 67.774 406.23 68.381 406.23 68.974 L 406.23 68.974 L 406.23 68.974 C 406.23 69.767 405.917 70.417 405.29 70.924 L 405.29 70.924 L 405.29 70.924 C 404.67 71.424 403.943 71.674 403.11 71.674 L 403.11 71.674 L 403.11 71.674 C 402.483 71.674 401.893 71.527 401.34 71.234 L 401.34 71.234 L 401.34 71.234 C 400.787 70.941 400.337 70.497 399.99 69.904 L 399.99 69.904 L 396.92 64.864 L 396.92 64.864 C 396.433 64.064 395.8 63.474 395.02 63.094 L 395.02 63.094 L 395.02 63.094 C 394.24 62.714 393.227 62.524 391.98 62.524 L 391.98 62.524 L 391.98 62.524 C 388.407 62.524 385.313 61.761 382.7 60.234 L 382.7 60.234 L 382.7 60.234 C 380.08 58.707 378.06 56.524 376.64 53.684 L 376.64 53.684 L 376.64 53.684 C 375.22 50.837 374.51 47.507 374.51 43.694 L 374.51 43.694 L 374.51 43.694 C 374.51 39.881 375.22 36.564 376.64 33.744 L 376.64 33.744 L 376.64 33.744 C 378.06 30.917 380.08 28.741 382.7 27.214 L 382.7 27.214 L 382.7 27.214 C 385.313 25.687 388.407 24.924 391.98 24.924 L 391.98 24.924 L 391.98 24.924 C 395.513 24.924 398.59 25.687 401.21 27.214 L 401.21 27.214 L 401.21 27.214 C 403.83 28.741 405.85 30.917 407.27 33.744 L 407.27 33.744 L 407.27 33.744 C 408.69 36.564 409.4 39.881 409.4 43.694 L 409.4 43.694 L 409.4 43.694 C 409.4 47.821 408.577 51.367 406.93 54.334 L 406.93 54.334 L 406.93 54.334 C 405.283 57.294 402.933 59.451 399.88 60.804 L 399.88 60.804 L 399.88 60.804 C 401.48 61.357 402.8 62.501 403.84 64.234 L 403.84 64.234 Z M 391.98 57.164 L 391.98 57.164 C 395.34 57.164 397.967 56.004 399.86 53.684 L 399.86 53.684 L 399.86 53.684 C 401.747 51.357 402.69 48.027 402.69 43.694 L 402.69 43.694 L 402.69 43.694 C 402.69 39.361 401.747 36.044 399.86 33.744 L 399.86 33.744 L 399.86 33.744 C 397.967 31.437 395.34 30.284 391.98 30.284 L 391.98 30.284 L 391.98 30.284 C 388.58 30.284 385.937 31.437 384.05 33.744 L 384.05 33.744 L 384.05 33.744 C 382.163 36.044 381.22 39.361 381.22 43.694 L 381.22 43.694 L 381.22 43.694 C 381.22 48.027 382.163 51.357 384.05 53.684 L 384.05 53.684 L 384.05 53.684 C 385.937 56.004 388.58 57.164 391.98 57.164 L 391.98 57.164 Z" transform="matrix(1, 0, 0, 1, -1.7763568394002505e-15, 0)" style="fill: rgb(51, 51, 51); white-space: pre;"/>
</svg>