<?xml version="1.0" encoding="utf-8"?>
<svg viewBox="10.820313453674316 10.363504409790039 98.00000762939453 69.27299499511719" width="98.00000762939453" height="69.27299499511719" xmlns="http://www.w3.org/2000/svg">
  <g transform="matrix(1.0000000298023222, 0, 0, 1.0000000298023222, 9.820312792668114, -5.363499324426031)">
    <circle cx="18.869" cy="28.494" r="12.767" style="fill: rgb(46, 138, 150);"/>
    <path d="M 48.443 72.14 C 49.586 72.14 50.744 71.704 51.616 70.831 L 68.06 54.394 C 69.805 52.65 69.812 49.82 68.067 48.076 C 66.322 46.33 63.494 46.33 61.748 48.076 L 48.471 61.147 C 48.471 61.147 34.283 45 30.645 45 C 27.007 45 9.612 45 9.612 45 C 5.4 45 1 48.857 1 53.07 L 1 85 L 34 85 L 34 60.665 L 44.739 70.831 C 45.612 71.704 47.3 72.14 48.443 72.14 Z" style="fill: rgb(46, 138, 150);"/>
    <polygon points="44 16 44 49.221 47.983 53.428 51 50.421 51 24 92 24 92 78 44 78 44 85 99 85 99 16" style="fill: rgb(46, 138, 150);"/>
  </g>
</svg>