<?xml version="1.0" standalone="no"?>
<!DOCTYPE svg PUBLIC "-//W3C//DTD SVG 20010904//EN"
 "http://www.w3.org/TR/2001/REC-SVG-20010904/DTD/svg10.dtd">
<svg version="1.0" xmlns="http://www.w3.org/2000/svg"
 width="784.000000pt" height="784.000000pt" viewBox="0 0 784.000000 784.000000"
 preserveAspectRatio="xMidYMid meet">
<metadata>
Created by potrace 1.11, written by Peter Selinger 2001-2013
</metadata>
<g transform="translate(0.000000,784.000000) scale(0.100000,-0.100000)"
fill="#000000" stroke="none">
<path d="M1235 6670 c-258 -54 -465 -184 -622 -390 -52 -67 -143 -239 -143
-269 0 -9 -4 -21 -9 -27 -20 -21 -44 -165 -47 -289 -4 -144 8 -228 51 -360 65
-201 238 -416 428 -534 105 -65 225 -110 370 -139 95 -19 344 -9 407 15 8 4
18 6 21 5 4 -1 37 10 75 24 38 14 77 28 87 31 9 3 17 9 17 14 0 5 7 9 16 9 29
0 179 106 251 176 60 59 163 183 163 197 0 2 17 35 38 73 29 54 67 148 77 194
1 3 4 19 8 35 17 69 21 116 21 230 1 184 -24 296 -99 452 -130 268 -376 467
-670 542 -130 32 -314 37 -440 11z"/>
<path d="M3444 6659 c-3 -5 -5 -42 -4 -82 0 -40 0 -90 0 -112 -2 -61 -2 -78
-1 -105 3 -80 3 -96 2 -107 -1 -19 -2 -38 -1 -136 0 -48 -1 -91 -1 -95 -1 -4
0 -11 1 -17 1 -5 1 -39 0 -75 -2 -95 -2 -112 -1 -142 1 -16 1 -40 2 -55 0 -16
1 -39 1 -53 0 -14 -1 -37 -1 -52 -1 -16 -1 -40 -2 -55 -1 -35 -1 -71 0 -105 1
-16 1 -40 2 -55 0 -16 1 -39 1 -53 0 -14 -1 -37 -1 -52 -1 -16 -1 -40 -2 -55
0 -16 -1 -39 -1 -53 0 -14 1 -37 1 -52 1 -16 1 -40 2 -55 0 -16 1 -39 1 -53 0
-14 -1 -37 -1 -52 -1 -16 -1 -40 -2 -55 -1 -37 -1 -72 0 -103 1 -14 1 -33 1
-42 0 -10 0 -40 0 -68 0 -27 -1 -65 -1 -82 0 -18 0 -73 0 -122 1 -49 -2 -92
-4 -97 -3 -4 -1 -10 3 -13 5 -3 6 -25 2 -49 -3 -23 -3 -55 1 -69 4 -14 3 -31
-1 -38 -4 -7 -4 -26 -1 -44 4 -17 6 -42 4 -56 -13 -115 -5 -138 79 -226 40
-42 110 -115 155 -163 l83 -86 119 119 118 118 2 65 c1 36 3 68 5 72 3 4 1 13
-3 20 -5 7 -5 28 -1 47 4 19 4 34 0 34 -4 0 -4 16 0 34 4 19 6 37 3 40 -3 2
-4 35 -4 73 1 37 1 77 1 88 0 27 1 66 4 90 1 11 -1 35 -5 53 -4 17 -3 34 1 37
5 3 5 19 0 35 -5 16 -5 32 0 35 5 3 5 19 0 35 -5 18 -5 32 1 36 5 3 6 10 3 16
-4 6 -6 38 -5 72 2 58 2 68 1 99 -1 6 0 40 1 75 1 34 0 65 -3 68 -3 3 -2 21 2
40 4 18 4 34 0 34 -4 0 -5 15 -1 33 4 17 4 46 1 62 -3 17 -3 54 0 83 4 29 3
57 -1 63 -3 6 -3 26 1 45 4 19 4 34 0 34 -4 0 -4 16 0 34 4 19 6 37 3 40 -3 2
-4 35 -4 73 1 37 1 77 1 88 0 27 1 66 4 90 1 11 -1 35 -5 53 -4 17 -3 35 2 38
5 3 7 10 4 15 -6 8 -9 103 -5 124 1 6 2 18 1 27 -2 16 105 17 1639 17 1529 0
1641 -2 1639 -17 -1 -9 0 -21 1 -27 1 -5 1 -32 1 -60 -1 -27 -2 -71 -2 -97 -1
-25 2 -51 6 -57 3 -6 1 -11 -5 -11 -6 0 -8 -5 -5 -10 8 -14 10 -108 3 -116 -4
-3 -2 -18 2 -34 4 -16 6 -31 3 -34 -8 -8 -7 -102 2 -115 3 -6 1 -11 -5 -11 -6
0 -8 -5 -5 -10 4 -6 6 -34 6 -63 -1 -29 -1 -63 0 -77 0 -14 0 -32 0 -40 -4
-63 -2 -110 4 -119 3 -6 1 -11 -5 -11 -6 0 -8 -5 -5 -10 8 -14 10 -108 3 -116
-4 -3 -2 -18 2 -34 4 -16 6 -31 3 -34 -8 -8 -7 -102 2 -115 3 -6 1 -11 -5 -11
-6 0 -8 -5 -5 -10 4 -6 6 -33 6 -60 -1 -28 -1 -73 -2 -101 0 -28 2 -53 5 -56
2 -3 1 -15 -3 -27 -5 -11 -5 -30 -1 -41 4 -11 4 -32 0 -46 -4 -15 -4 -32 0
-39 5 -7 5 -23 0 -34 -4 -12 -4 -31 1 -43 4 -12 4 -25 -1 -28 -5 -3 -5 -18 0
-35 5 -18 5 -32 -1 -36 -5 -3 -7 -10 -3 -15 5 -9 6 -34 3 -156 -1 -28 2 -56 6
-62 3 -6 1 -11 -5 -11 -6 0 -8 -5 -5 -10 7 -11 8 -79 2 -135 -1 -16 1 -42 5
-57 3 -15 3 -30 -2 -33 -5 -3 -5 -18 -1 -33 4 -15 5 -38 1 -52 -4 -14 -3 -36
0 -50 4 -14 4 -34 0 -45 -4 -11 -4 -29 0 -40 4 -11 4 -32 0 -46 -4 -15 -4 -32
0 -39 5 -7 5 -23 0 -34 -4 -12 -4 -30 -1 -41 4 -11 6 -31 4 -45 -6 -47 -5
-118 2 -129 3 -6 1 -11 -5 -11 -6 0 -8 -5 -5 -10 8 -14 10 -108 3 -116 -4 -3
-2 -18 2 -34 4 -16 6 -31 3 -34 -8 -8 -7 -102 2 -115 3 -6 1 -11 -5 -11 -6 0
-8 -5 -5 -10 7 -11 8 -79 2 -135 -1 -16 1 -42 5 -57 3 -15 2 -30 -3 -34 -5 -3
-7 -10 -3 -15 5 -9 6 -34 3 -156 -1 -28 2 -56 6 -62 3 -6 1 -11 -5 -11 -6 0
-8 -5 -5 -10 7 -11 8 -79 2 -135 -1 -16 1 -42 5 -57 3 -15 3 -30 -2 -33 -5 -3
-5 -18 -1 -33 5 -15 5 -36 1 -47 -4 -11 -4 -32 1 -47 4 -16 3 -30 -2 -34 -5
-3 -7 -10 -3 -15 5 -9 6 -34 3 -156 -1 -28 2 -56 6 -62 3 -6 2 -11 -3 -11 -5
0 -7 -11 -4 -25 3 -17 0 -25 -9 -25 -8 0 -872 0 -1921 0 l-1906 0 -1 -81 c0
-44 -3 -84 -6 -89 -3 -5 -2 -11 3 -14 5 -3 6 -27 3 -53 -4 -26 -4 -61 -1 -77
3 -16 3 -65 0 -108 -3 -44 -2 -82 1 -84 4 -2 4 -15 1 -29 l-4 -25 2201 0 2201
0 0 2760 0 2760 -2195 -1 c-1430 0 -2197 -4 -2201 -10z"/>
<path d="M609 4345 c-3 -2 -18 -6 -34 -9 -62 -12 -74 -15 -94 -26 -12 -6 -21
-9 -21 -6 0 4 -28 -10 -115 -58 -147 -80 -275 -242 -326 -410 -17 -57 -18
-133 -19 -1373 l0 -1313 1320 0 1319 0 1 88 c1 48 1 95 1 105 0 19 0 78 0 105
0 72 1 199 0 207 0 16 0 88 0 110 0 45 1 201 0 210 0 16 0 88 0 110 0 45 1
201 0 210 0 16 0 88 0 110 0 64 0 202 0 215 0 8 0 47 0 85 0 39 0 77 0 85 0 8
0 47 0 85 1 39 1 77 1 85 0 8 -1 39 -2 68 -1 29 0 56 3 58 2 3 38 -28 80 -68
41 -40 120 -114 174 -165 54 -50 128 -120 164 -155 37 -35 135 -128 219 -208
84 -80 163 -154 174 -165 130 -125 285 -171 445 -132 73 19 142 82 811 751
380 379 690 693 690 697 0 4 6 14 13 21 23 23 48 100 54 165 4 49 1 78 -18
135 -19 61 -32 82 -84 134 -77 79 -124 100 -243 109 -77 7 -187 -33 -248 -90
-11 -10 -718 -704 -961 -944 l-115 -113 -35 38 c-372 420 -845 892 -1063 1064
-18 14 -38 30 -45 37 -31 29 -199 133 -216 133 -10 0 -21 4 -24 10 -6 10
-1797 15 -1806 5z"/>
</g>
</svg>
