<svg version="1" xmlns="http://www.w3.org/2000/svg" width="1045.333" height="1045.333" viewBox="0 0 784.000000 784.000000"><path d="M123.5 117c-25.8 5.4-46.5 18.4-62.2 39-5.2 6.7-14.3 23.9-14.3 26.9 0 .9-.4 2.1-.9 2.7-2 2.1-4.4 16.5-4.7 28.9-.4 14.4.8 22.8 5.1 36 6.5 20.1 23.8 41.6 42.8 53.4 10.5 6.5 22.5 11 37 13.9 9.5 1.9 34.4.9 40.7-1.5.8-.4 1.8-.6 2.1-.5.4.1 3.7-1 7.5-2.4s7.7-2.8 8.7-3.1c.9-.3 1.7-.9 1.7-1.4 0-.5.7-.9 1.6-.9 2.9 0 17.9-10.6 25.1-17.6 6-5.9 16.3-18.3 16.3-19.7 0-.2 1.7-3.5 3.8-7.3 2.9-5.4 6.7-14.8 7.7-19.4.1-.3.4-1.9.8-3.5 1.7-6.9 2.1-11.6 2.1-23 .1-18.4-2.4-29.6-9.9-45.2-13-26.8-37.6-46.7-67-54.2-13-3.2-31.4-3.7-44-1.1zM344.4 118.1c-.3.5-.5 4.2-.4 8.2v11.2c-.2 6.1-.2 7.8-.1 10.5.3 8 .3 9.6.2 10.7-.1 1.9-.2 3.8-.1 13.6 0 4.8-.1 9.1-.1 9.5-.1.4 0 1.1.1 1.7.1.5.1 3.9 0 7.5-.2 9.5-.2 11.2-.1 14.2.1 1.6.1 4 .2 5.5 0 1.6.1 3.9.1 5.3s-.1 3.7-.1 5.2c-.1 1.6-.1 4-.2 5.5-.1 3.5-.1 7.1 0 10.5.1 1.6.1 4 .2 5.5 0 1.6.1 3.9.1 5.3s-.1 3.7-.1 5.2c-.1 1.6-.1 4-.2 5.5 0 1.6-.1 3.9-.1 5.3s.1 3.7.1 5.2c.1 1.6.1 4 .2 5.5 0 1.6.1 3.9.1 5.3s-.1 3.7-.1 5.2c-.1 1.6-.1 4-.2 5.5-.1 3.7-.1 7.2 0 10.3.1 1.4.1 3.3.1 4.2v6.8c0 2.7-.1 6.5-.1 8.2v12.2c.1 4.9-.2 9.2-.4 9.7-.3.4-.1 1 .3 1.3.5.3.6 2.5.2 4.9-.3 2.3-.3 5.5.1 6.9.4 1.4.3 3.1-.1 3.8-.4.7-.4 2.6-.1 4.4.4 1.7.6 4.2.4 5.6-1.3 11.5-.5 13.8 7.9 22.6 4 4.2 11 11.5 15.5 16.3l8.3 8.6 11.9-11.9 11.8-11.8.2-6.5c.1-3.6.3-6.8.5-7.2.3-.4.1-1.3-.3-2-.5-.7-.5-2.8-.1-4.7.4-1.9.4-3.4 0-3.4s-.4-1.6 0-3.4c.4-1.9.6-3.7.3-4-.3-.2-.4-3.5-.4-7.3.1-3.7.1-7.7.1-8.8 0-2.7.1-6.6.4-9 .1-1.1-.1-3.5-.5-5.3-.4-1.7-.3-3.4.1-3.7.5-.3.5-1.9 0-3.5s-.5-3.2 0-3.5c.5-.3.5-1.9 0-3.5-.5-1.8-.5-3.2.1-3.6.5-.3.6-1 .3-1.6-.4-.6-.6-3.8-.5-7.2.2-5.8.2-6.8.1-9.9-.1-.6 0-4 .1-7.5.1-3.4 0-6.5-.3-6.8-.3-.3-.2-2.1.2-4 .4-1.8.4-3.4 0-3.4s-.5-1.5-.1-3.3c.4-1.7.4-4.6.1-6.2-.3-1.7-.3-5.4 0-8.3.4-2.9.3-5.7-.1-6.3-.3-.6-.3-2.6.1-4.5s.4-3.4 0-3.4-.4-1.6 0-3.4c.4-1.9.6-3.7.3-4-.3-.2-.4-3.5-.4-7.3.1-3.7.1-7.7.1-8.8 0-2.7.1-6.6.4-9 .1-1.1-.1-3.5-.5-5.3-.4-1.7-.3-3.5.2-3.8.5-.3.7-1 .4-1.5-.6-.8-.9-10.3-.5-12.4.1-.6.2-1.8.1-2.7-.2-1.6 10.5-1.7 163.9-1.7 152.9 0 164.1.2 163.9 1.7-.1.9 0 2.1.1 2.7.1.5.1 3.2.1 6-.1 2.7-.2 7.1-.2 9.7-.1 2.5.2 5.1.6 5.7.3.6.1 1.1-.5 1.1s-.8.5-.5 1c.8 1.4 1 10.8.3 11.6-.4.3-.2 1.8.2 3.4.4 1.6.6 3.1.3 3.4-.8.8-.7 10.2.2 11.5.3.6.1 1.1-.5 1.1s-.8.5-.5 1c.4.6.6 3.4.6 6.3-.1 2.9-.1 6.3 0 7.7v4c-.4 6.3-.2 11 .4 11.9.3.6.1 1.1-.5 1.1s-.8.5-.5 1c.8 1.4 1 10.8.3 11.6-.4.3-.2 1.8.2 3.4.4 1.6.6 3.1.3 3.4-.8.8-.7 10.2.2 11.5.3.6.1 1.1-.5 1.1s-.8.5-.5 1c.4.6.6 3.3.6 6-.1 2.8-.1 7.3-.2 10.1 0 2.8.2 5.3.5 5.6.2.3.1 1.5-.3 2.7-.5 1.1-.5 3-.1 4.1.4 1.1.4 3.2 0 4.6-.4 1.5-.4 3.2 0 3.9.5.7.5 2.3 0 3.4-.4 1.2-.4 3.1.1 4.3.4 1.2.4 2.5-.1 2.8-.5.3-.5 1.8 0 3.5.5 1.8.5 3.2-.1 3.6-.5.3-.7 1-.3 1.5.5.9.6 3.4.3 15.6-.1 2.8.2 5.6.6 6.2.3.6.1 1.1-.5 1.1s-.8.5-.5 1c.7 1.1.8 7.9.2 13.5-.1 1.6.1 4.2.5 5.7.3 1.5.3 3-.2 3.3-.5.3-.5 1.8-.1 3.3.4 1.5.5 3.8.1 5.2-.4 1.4-.3 3.6 0 5 .4 1.4.4 3.4 0 4.5s-.4 2.9 0 4 .4 3.2 0 4.6c-.4 1.5-.4 3.2 0 3.9.5.7.5 2.3 0 3.4-.4 1.2-.4 3-.1 4.1.4 1.1.6 3.1.4 4.5-.6 4.7-.5 11.8.2 12.9.3.6.1 1.1-.5 1.1s-.8.5-.5 1c.8 1.4 1 10.8.3 11.6-.4.3-.2 1.8.2 3.4.4 1.6.6 3.1.3 3.4-.8.8-.7 10.2.2 11.5.3.6.1 1.1-.5 1.1s-.8.5-.5 1c.7 1.1.8 7.9.2 13.5-.1 1.6.1 4.2.5 5.7.3 1.5.2 3-.3 3.4-.5.3-.7 1-.3 1.5.5.9.6 3.4.3 15.6-.1 2.8.2 5.6.6 6.2.3.6.1 1.1-.5 1.1s-.8.5-.5 1c.7 1.1.8 7.9.2 13.5-.1 1.6.1 4.2.5 5.7.3 1.5.3 3-.2 3.3-.5.3-.5 1.8-.1 3.3.5 1.5.5 3.6.1 4.7s-.4 3.2.1 4.7c.4 1.6.3 3-.2 3.4-.5.3-.7 1-.3 1.5.5.9.6 3.4.3 15.6-.1 2.8.2 5.6.6 6.2.3.6.2 1.1-.3 1.1s-.7 1.1-.4 2.5c.3 1.7 0 2.5-.9 2.5H344.2l-.1 8.1c0 4.4-.3 8.4-.6 8.9s-.2 1.1.3 1.4c.5.3.6 2.7.3 5.3-.4 2.6-.4 6.1-.1 7.7.3 1.6.3 6.5 0 10.8-.3 4.4-.2 8.2.1 8.4.4.2.4 1.5.1 2.9l-.4 2.5H784V117l-219.5.1c-143 0-219.7.4-220.1 1z"/><path d="M60.9 349.5c-.3.2-1.8.6-3.4.9-6.2 1.2-7.4 1.5-9.4 2.6-1.2.6-2.1.9-2.1.6 0-.4-2.8 1-11.5 5.8-14.7 8-27.5 24.2-32.6 41C.2 406.1.1 413.7 0 537.7V669h263.9l.1-8.8c.1-4.8.1-9.5.1-10.5v-10.5c0-7.2.1-19.9 0-20.7v-11c0-4.5.1-20.1 0-21v-11c0-4.5.1-20.1 0-21v-11V522v-8.5-8.5-8.5c.1-3.9.1-7.7.1-8.5 0-.8-.1-3.9-.2-6.8s0-5.6.3-5.8c.2-.3 3.8 2.8 8 6.8 4.1 4 12 11.4 17.4 16.5 5.4 5 12.8 12 16.4 15.5 3.7 3.5 13.5 12.8 21.9 20.8 8.4 8 16.3 15.4 17.4 16.5 13 12.5 28.5 17.1 44.5 13.2 7.3-1.9 14.2-8.2 81.1-75.1 38-37.9 69-69.3 69-69.7 0-.4.6-1.4 1.3-2.1 2.3-2.3 4.8-10 5.4-16.5.4-4.9.1-7.8-1.8-13.5-1.9-6.1-3.2-8.2-8.4-13.4-7.7-7.9-12.4-10-24.3-10.9-7.7-.7-18.7 3.3-24.8 9-1.1 1-71.8 70.4-96.1 94.4l-11.5 11.3-3.5-3.8c-37.2-42-84.5-89.2-106.3-106.4-1.8-1.4-3.8-3-4.5-3.7-3.1-2.9-19.9-13.3-21.6-13.3-1 0-2.1-.4-2.4-1-.6-1-179.7-1.5-180.6-.5z"/></svg>