<?xml version="1.0" encoding="utf-8"?>
<svg viewBox="0 0 400 70" width="400" height="70" xmlns="http://www.w3.org/2000/svg">
  <g transform="matrix(1, 0, 0, 1, -0.289991, -15.363503)">
    <circle cx="18.869" cy="28.494" r="12.767" style="fill: rgba(255, 255, 255, 0.7);"/>
    <path d="M 48.443 72.14 C 49.586 72.14 50.744 71.704 51.616 70.831 L 68.06 54.394 C 69.805 52.65 69.812 49.82 68.067 48.076 C 66.322 46.33 63.494 46.33 61.748 48.076 L 48.471 61.147 C 48.471 61.147 34.283 45 30.645 45 C 27.007 45 9.612 45 9.612 45 C 5.4 45 1 48.857 1 53.07 L 1 85 L 34 85 L 34 60.665 L 44.739 70.831 C 45.612 71.704 47.3 72.14 48.443 72.14 Z" style="fill: rgba(255, 255, 255, 0.7);"/>
    <polygon points="44 16 44 49.221 47.983 53.428 51 50.421 51 24 92 24 92 78 44 78 44 85 99 85 99 16" style="fill: rgba(255, 255, 255, 0.7);"/>
  </g>
  <path d="M 120.518 52.363 L 120.518 52.363 C 119.511 52.363 118.705 52.053 118.098 51.433 L 118.098 51.433 L 118.098 51.433 C 117.491 50.806 117.188 49.99 117.188 48.983 L 117.188 48.983 L 117.188 18.463 L 117.188 18.463 C 117.188 17.456 117.491 16.65 118.098 16.043 L 118.098 16.043 L 118.098 16.043 C 118.705 15.436 119.511 15.133 120.518 15.133 L 120.518 15.133 L 120.518 15.133 C 121.558 15.133 122.381 15.436 122.988 16.043 L 122.988 16.043 L 122.988 16.043 C 123.595 16.65 123.898 17.456 123.898 18.463 L 123.898 18.463 L 123.898 48.983 L 123.898 48.983 C 123.898 49.99 123.595 50.806 122.988 51.433 L 122.988 51.433 L 122.988 51.433 C 122.381 52.053 121.558 52.363 120.518 52.363 L 120.518 52.363 Z M 146 26.003 L 146 26.003 C 149.047 26.003 151.317 26.87 152.81 28.603 L 152.81 28.603 L 152.81 28.603 C 154.303 30.336 155.05 32.953 155.05 36.453 L 155.05 36.453 L 155.05 49.243 L 155.05 49.243 C 155.05 50.216 154.763 50.98 154.19 51.533 L 154.19 51.533 L 154.19 51.533 C 153.617 52.086 152.827 52.363 151.82 52.363 L 151.82 52.363 L 151.82 52.363 C 150.813 52.363 150.017 52.086 149.43 51.533 L 149.43 51.533 L 149.43 51.533 C 148.843 50.98 148.55 50.216 148.55 49.243 L 148.55 49.243 L 148.55 36.813 L 148.55 36.813 C 148.55 34.84 148.177 33.403 147.43 32.503 L 147.43 32.503 L 147.43 32.503 C 146.683 31.603 145.513 31.153 143.92 31.153 L 143.92 31.153 L 143.92 31.153 C 142.047 31.153 140.547 31.74 139.42 32.913 L 139.42 32.913 L 139.42 32.913 C 138.293 34.093 137.73 35.674 137.73 37.653 L 137.73 37.653 L 137.73 49.243 L 137.73 49.243 C 137.73 50.216 137.437 50.98 136.85 51.533 L 136.85 51.533 L 136.85 51.533 C 136.257 52.086 135.457 52.363 134.45 52.363 L 134.45 52.363 L 134.45 52.363 C 133.45 52.363 132.663 52.086 132.09 51.533 L 132.09 51.533 L 132.09 51.533 C 131.517 50.98 131.23 50.216 131.23 49.243 L 131.23 49.243 L 131.23 29.123 L 131.23 29.123 C 131.23 28.223 131.523 27.493 132.11 26.933 L 132.11 26.933 L 132.11 26.933 C 132.703 26.38 133.503 26.103 134.51 26.103 L 134.51 26.103 L 134.51 26.103 C 135.41 26.103 136.147 26.373 136.72 26.913 L 136.72 26.913 L 136.72 26.913 C 137.287 27.446 137.57 28.146 137.57 29.013 L 137.57 29.013 L 137.57 30.423 L 137.57 30.423 C 138.437 29.003 139.6 27.91 141.06 27.143 L 141.06 27.143 L 141.06 27.143 C 142.513 26.383 144.16 26.003 146 26.003 L 146 26.003 Z M 170.85 52.473 L 170.85 52.473 C 167.077 52.473 164.027 51.726 161.7 50.233 L 161.7 50.233 L 161.7 50.233 C 160.593 49.573 160.04 48.636 160.04 47.424 L 160.04 47.424 L 160.04 47.424 C 160.04 46.73 160.23 46.167 160.61 45.733 L 160.61 45.733 L 160.61 45.733 C 160.99 45.3 161.457 45.083 162.01 45.083 L 162.01 45.083 L 162.01 45.083 C 162.603 45.083 163.42 45.361 164.46 45.913 L 164.46 45.913 L 164.46 45.913 C 165.567 46.433 166.58 46.833 167.5 47.113 L 167.5 47.113 L 167.5 47.113 C 168.42 47.393 169.59 47.533 171.01 47.533 L 171.01 47.533 L 171.01 47.533 C 172.463 47.533 173.6 47.29 174.42 46.803 L 174.42 46.803 L 174.42 46.803 C 175.233 46.316 175.64 45.64 175.64 44.773 L 175.64 44.773 L 175.64 44.773 C 175.64 44.187 175.473 43.72 175.14 43.373 L 175.14 43.373 L 175.14 43.373 C 174.813 43.026 174.227 42.703 173.38 42.403 L 173.38 42.403 L 173.38 42.403 C 172.527 42.111 171.233 41.773 169.5 41.393 L 169.5 41.393 L 169.5 41.393 C 166.413 40.766 164.203 39.883 162.87 38.743 L 162.87 38.743 L 162.87 38.743 C 161.537 37.597 160.87 36.021 160.87 34.014 L 160.87 34.014 L 160.87 34.014 C 160.87 32.486 161.32 31.106 162.22 29.873 L 162.22 29.873 L 162.22 29.873 C 163.12 28.646 164.36 27.693 165.94 27.013 L 165.94 27.013 L 165.94 27.013 C 167.52 26.34 169.313 26.003 171.32 26.003 L 171.32 26.003 L 171.32 26.003 C 172.78 26.003 174.183 26.183 175.53 26.543 L 175.53 26.543 L 175.53 26.543 C 176.883 26.91 178.097 27.44 179.17 28.133 L 179.17 28.133 L 179.17 28.133 C 180.283 28.826 180.84 29.746 180.84 30.893 L 180.84 30.893 L 180.84 30.893 C 180.84 31.586 180.65 32.166 180.27 32.633 L 180.27 32.633 L 180.27 32.633 C 179.883 33.1 179.413 33.333 178.86 33.333 L 178.86 33.333 L 178.86 33.333 C 178.48 33.333 178.107 33.257 177.74 33.104 L 177.74 33.104 L 177.74 33.104 C 177.38 32.944 176.923 32.706 176.37 32.393 L 176.37 32.393 L 176.37 32.393 C 175.363 31.873 174.497 31.483 173.77 31.223 L 173.77 31.223 L 173.77 31.223 C 173.037 30.963 172.133 30.833 171.06 30.833 L 171.06 30.833 L 171.06 30.833 C 169.78 30.833 168.767 31.093 168.02 31.613 L 168.02 31.613 L 168.02 31.613 C 167.273 32.133 166.9 32.847 166.9 33.753 L 166.9 33.753 L 166.9 33.753 C 166.9 34.62 167.283 35.276 168.05 35.723 L 168.05 35.723 L 168.05 35.723 C 168.81 36.176 170.283 36.626 172.47 37.073 L 172.47 37.073 L 172.47 37.073 C 174.79 37.56 176.61 38.116 177.93 38.743 L 177.93 38.743 L 177.93 38.743 C 179.243 39.363 180.187 40.143 180.76 41.083 L 180.76 41.083 L 180.76 41.083 C 181.333 42.016 181.62 43.213 181.62 44.674 L 181.62 44.674 L 181.62 44.674 C 181.62 47.026 180.64 48.913 178.68 50.333 L 178.68 50.333 L 178.68 50.333 C 176.72 51.76 174.11 52.473 170.85 52.473 L 170.85 52.473 Z M 199.82 47.533 L 199.82 47.533 C 201.553 47.633 202.42 48.413 202.42 49.873 L 202.42 49.873 L 202.42 49.873 C 202.42 50.701 202.08 51.33 201.4 51.764 L 201.4 51.764 L 201.4 51.764 C 200.727 52.196 199.767 52.38 198.52 52.313 L 198.52 52.313 L 197.11 52.213 L 197.11 52.213 C 191.29 51.793 188.38 48.674 188.38 42.854 L 188.38 42.854 L 188.38 31.513 L 185.78 31.513 L 185.78 31.513 C 184.84 31.513 184.12 31.306 183.62 30.893 L 183.62 30.893 L 183.62 30.893 C 183.12 30.473 182.87 29.866 182.87 29.073 L 182.87 29.073 L 182.87 29.073 C 182.87 28.273 183.12 27.666 183.62 27.253 L 183.62 27.253 L 183.62 27.253 C 184.12 26.833 184.84 26.623 185.78 26.623 L 185.78 26.623 L 188.38 26.623 L 188.38 21.843 L 188.38 21.843 C 188.38 20.903 188.673 20.156 189.26 19.603 L 189.26 19.603 L 189.26 19.603 C 189.853 19.05 190.65 18.773 191.65 18.773 L 191.65 18.773 L 191.65 18.773 C 192.623 18.773 193.403 19.05 193.99 19.603 L 193.99 19.603 L 193.99 19.603 C 194.583 20.156 194.88 20.903 194.88 21.843 L 194.88 21.843 L 194.88 26.623 L 199.3 26.623 L 199.3 26.623 C 200.233 26.623 200.953 26.833 201.46 27.253 L 201.46 27.253 L 201.46 27.253 C 201.96 27.666 202.21 28.273 202.21 29.073 L 202.21 29.073 L 202.21 29.073 C 202.21 29.866 201.96 30.473 201.46 30.893 L 201.46 30.893 L 201.46 30.893 C 200.953 31.306 200.233 31.513 199.3 31.513 L 199.3 31.513 L 194.88 31.513 L 194.88 43.313 L 194.88 43.313 C 194.88 45.88 196.057 47.25 198.41 47.424 L 198.41 47.424 L 199.82 47.533 Z M 219.998 26.103 L 219.998 26.103 C 220.898 26.036 221.608 26.226 222.128 26.673 L 222.128 26.673 L 222.128 26.673 C 222.648 27.126 222.908 27.803 222.908 28.703 L 222.908 28.703 L 222.908 28.703 C 222.908 29.643 222.681 30.336 222.228 30.783 L 222.228 30.783 L 222.228 30.783 C 221.781 31.236 220.968 31.533 219.788 31.673 L 219.788 31.673 L 218.228 31.823 L 218.228 31.823 C 216.181 32.03 214.681 32.723 213.728 33.903 L 213.728 33.903 L 213.728 33.903 C 212.775 35.083 212.298 36.556 212.298 38.323 L 212.298 38.323 L 212.298 49.243 L 212.298 49.243 C 212.298 50.25 211.985 51.023 211.358 51.563 L 211.358 51.563 L 211.358 51.563 C 210.738 52.097 209.958 52.363 209.018 52.363 L 209.018 52.363 L 209.018 52.363 C 208.085 52.363 207.315 52.097 206.708 51.563 L 206.708 51.563 L 206.708 51.563 C 206.101 51.023 205.798 50.25 205.798 49.243 L 205.798 49.243 L 205.798 29.123 L 205.798 29.123 C 205.798 28.15 206.101 27.403 206.708 26.883 L 206.708 26.883 L 206.708 26.883 C 207.315 26.363 208.068 26.103 208.968 26.103 L 208.968 26.103 L 208.968 26.103 C 209.868 26.103 210.598 26.356 211.158 26.863 L 211.158 26.863 L 211.158 26.863 C 211.711 27.363 211.988 28.08 211.988 29.013 L 211.988 29.013 L 211.988 31.093 L 211.988 31.093 C 212.648 29.573 213.628 28.396 214.928 27.563 L 214.928 27.563 L 214.928 27.563 C 216.228 26.73 217.675 26.26 219.268 26.153 L 219.268 26.153 L 219.998 26.103 Z M 245.784 26.103 L 245.784 26.103 C 246.791 26.103 247.587 26.38 248.174 26.933 L 248.174 26.933 L 248.174 26.933 C 248.767 27.493 249.064 28.24 249.064 29.173 L 249.064 29.173 L 249.064 49.354 L 249.064 49.354 C 249.064 50.253 248.761 50.98 248.154 51.533 L 248.154 51.533 L 248.154 51.533 C 247.547 52.086 246.757 52.363 245.784 52.363 L 245.784 52.363 L 245.784 52.363 C 244.851 52.363 244.107 52.104 243.554 51.583 L 243.554 51.583 L 243.554 51.583 C 242.994 51.063 242.714 50.354 242.714 49.453 L 242.714 49.453 L 242.714 48.153 L 242.714 48.153 C 241.921 49.54 240.847 50.606 239.494 51.354 L 239.494 51.354 L 239.494 51.354 C 238.141 52.1 236.614 52.473 234.914 52.473 L 234.914 52.473 L 234.914 52.473 C 228.674 52.473 225.554 48.97 225.554 41.963 L 225.554 41.963 L 225.554 29.173 L 225.554 29.173 C 225.554 28.24 225.851 27.493 226.444 26.933 L 226.444 26.933 L 226.444 26.933 C 227.031 26.38 227.811 26.103 228.784 26.103 L 228.784 26.103 L 228.784 26.103 C 229.791 26.103 230.587 26.38 231.174 26.933 L 231.174 26.933 L 231.174 26.933 C 231.761 27.493 232.054 28.24 232.054 29.173 L 232.054 29.173 L 232.054 42.014 L 232.054 42.014 C 232.054 43.82 232.421 45.156 233.154 46.023 L 233.154 46.023 L 233.154 46.023 C 233.881 46.89 235.024 47.323 236.584 47.323 L 236.584 47.323 L 236.584 47.323 C 238.384 47.323 239.831 46.723 240.924 45.523 L 240.924 45.523 L 240.924 45.523 C 242.017 44.33 242.564 42.746 242.564 40.773 L 242.564 40.773 L 242.564 29.173 L 242.564 29.173 C 242.564 28.24 242.857 27.493 243.444 26.933 L 243.444 26.933 L 243.444 26.933 C 244.037 26.38 244.817 26.103 245.784 26.103 L 245.784 26.103 Z M 267.102 52.473 L 267.102 52.473 C 264.575 52.473 262.349 51.933 260.422 50.854 L 260.422 50.854 L 260.422 50.854 C 258.502 49.78 257.022 48.257 255.982 46.283 L 255.982 46.283 L 255.982 46.283 C 254.942 44.303 254.422 41.996 254.422 39.363 L 254.422 39.363 L 254.422 39.363 C 254.422 36.73 254.965 34.4 256.052 32.373 L 256.052 32.373 L 256.052 32.373 C 257.145 30.346 258.682 28.776 260.662 27.663 L 260.662 27.663 L 260.662 27.663 C 262.635 26.556 264.905 26.003 267.472 26.003 L 267.472 26.003 L 267.472 26.003 C 268.825 26.003 270.185 26.193 271.552 26.573 L 271.552 26.573 L 271.552 26.573 C 272.919 26.953 274.122 27.473 275.162 28.133 L 275.162 28.133 L 275.162 28.133 C 276.275 28.86 276.832 29.78 276.832 30.893 L 276.832 30.893 L 276.832 30.893 C 276.832 31.653 276.649 32.266 276.282 32.733 L 276.282 32.733 L 276.282 32.733 C 275.922 33.201 275.445 33.433 274.852 33.433 L 274.852 33.433 L 274.852 33.433 C 274.472 33.433 274.075 33.347 273.662 33.174 L 273.662 33.174 L 273.662 33.174 C 273.242 33 272.825 32.793 272.412 32.553 L 272.412 32.553 L 272.412 32.553 C 271.645 32.1 270.915 31.743 270.222 31.483 L 270.222 31.483 L 270.222 31.483 C 269.529 31.223 268.732 31.093 267.832 31.093 L 267.832 31.093 L 267.832 31.093 C 265.685 31.093 264.032 31.796 262.872 33.203 L 262.872 33.203 L 262.872 33.203 C 261.705 34.611 261.122 36.63 261.122 39.264 L 261.122 39.264 L 261.122 39.264 C 261.122 41.863 261.705 43.863 262.872 45.264 L 262.872 45.264 L 262.872 45.264 C 264.032 46.67 265.685 47.373 267.832 47.373 L 267.832 47.373 L 267.832 47.373 C 268.699 47.373 269.472 47.243 270.152 46.983 L 270.152 46.983 L 270.152 46.983 C 270.825 46.723 271.579 46.366 272.412 45.913 L 272.412 45.913 L 272.412 45.913 C 272.932 45.606 273.382 45.373 273.762 45.213 L 273.762 45.213 L 273.762 45.213 C 274.142 45.06 274.522 44.983 274.902 44.983 L 274.902 44.983 L 274.902 44.983 C 275.462 44.983 275.932 45.226 276.312 45.713 L 276.312 45.713 L 276.312 45.713 C 276.692 46.194 276.882 46.8 276.882 47.533 L 276.882 47.533 L 276.882 47.533 C 276.882 48.12 276.752 48.63 276.492 49.063 L 276.492 49.063 L 276.492 49.063 C 276.232 49.496 275.809 49.886 275.222 50.233 L 275.222 50.233 L 275.222 50.233 C 274.142 50.926 272.892 51.473 271.472 51.873 L 271.472 51.873 L 271.472 51.873 C 270.052 52.273 268.595 52.473 267.102 52.473 L 267.102 52.473 Z M 294.564 47.533 L 294.564 47.533 C 296.297 47.633 297.164 48.413 297.164 49.873 L 297.164 49.873 L 297.164 49.873 C 297.164 50.701 296.824 51.33 296.144 51.764 L 296.144 51.764 L 296.144 51.764 C 295.471 52.196 294.511 52.38 293.264 52.313 L 293.264 52.313 L 291.854 52.213 L 291.854 52.213 C 286.034 51.793 283.124 48.674 283.124 42.854 L 283.124 42.854 L 283.124 31.513 L 280.524 31.513 L 280.524 31.513 C 279.584 31.513 278.864 31.306 278.364 30.893 L 278.364 30.893 L 278.364 30.893 C 277.864 30.473 277.614 29.866 277.614 29.073 L 277.614 29.073 L 277.614 29.073 C 277.614 28.273 277.864 27.666 278.364 27.253 L 278.364 27.253 L 278.364 27.253 C 278.864 26.833 279.584 26.623 280.524 26.623 L 280.524 26.623 L 283.124 26.623 L 283.124 21.843 L 283.124 21.843 C 283.124 20.903 283.417 20.156 284.004 19.603 L 284.004 19.603 L 284.004 19.603 C 284.597 19.05 285.394 18.773 286.394 18.773 L 286.394 18.773 L 286.394 18.773 C 287.367 18.773 288.147 19.05 288.734 19.603 L 288.734 19.603 L 288.734 19.603 C 289.327 20.156 289.624 20.903 289.624 21.843 L 289.624 21.843 L 289.624 26.623 L 294.044 26.623 L 294.044 26.623 C 294.977 26.623 295.697 26.833 296.204 27.253 L 296.204 27.253 L 296.204 27.253 C 296.704 27.666 296.954 28.273 296.954 29.073 L 296.954 29.073 L 296.954 29.073 C 296.954 29.866 296.704 30.473 296.204 30.893 L 296.204 30.893 L 296.204 30.893 C 295.697 31.306 294.977 31.513 294.044 31.513 L 294.044 31.513 L 289.624 31.513 L 289.624 43.313 L 289.624 43.313 C 289.624 45.88 290.801 47.25 293.154 47.424 L 293.154 47.424 L 294.564 47.533 Z M 312.142 52.473 L 312.142 52.473 C 309.542 52.473 307.262 51.933 305.302 50.854 L 305.302 50.854 L 305.302 50.854 C 303.342 49.78 301.825 48.24 300.752 46.233 L 300.752 46.233 L 300.752 46.233 C 299.679 44.22 299.142 41.88 299.142 39.213 L 299.142 39.213 L 299.142 39.213 C 299.142 36.54 299.679 34.206 300.752 32.213 L 300.752 32.213 L 300.752 32.213 C 301.825 30.22 303.342 28.686 305.302 27.613 L 305.302 27.613 L 305.302 27.613 C 307.262 26.54 309.542 26.003 312.142 26.003 L 312.142 26.003 L 312.142 26.003 C 314.742 26.003 317.019 26.54 318.972 27.613 L 318.972 27.613 L 318.972 27.613 C 320.932 28.686 322.442 30.22 323.502 32.213 L 323.502 32.213 L 323.502 32.213 C 324.555 34.206 325.082 36.54 325.082 39.213 L 325.082 39.213 L 325.082 39.213 C 325.082 41.88 324.555 44.22 323.502 46.233 L 323.502 46.233 L 323.502 46.233 C 322.442 48.24 320.932 49.78 318.972 50.854 L 318.972 50.854 L 318.972 50.854 C 317.019 51.933 314.742 52.473 312.142 52.473 L 312.142 52.473 Z M 312.082 47.424 L 312.082 47.424 C 314.202 47.424 315.815 46.73 316.922 45.343 L 316.922 45.343 L 316.922 45.343 C 318.029 43.956 318.582 41.913 318.582 39.213 L 318.582 39.213 L 318.582 39.213 C 318.582 36.54 318.029 34.503 316.922 33.104 L 316.922 33.104 L 316.922 33.104 C 315.815 31.696 314.222 30.993 312.142 30.993 L 312.142 30.993 L 312.142 30.993 C 310.062 30.993 308.459 31.696 307.332 33.104 L 307.332 33.104 L 307.332 33.104 C 306.205 34.503 305.642 36.54 305.642 39.213 L 305.642 39.213 L 305.642 39.213 C 305.642 41.913 306.195 43.956 307.302 45.343 L 307.302 45.343 L 307.302 45.343 C 308.409 46.73 310.002 47.424 312.082 47.424 L 312.082 47.424 Z M 344.642 26.103 L 344.642 26.103 C 345.542 26.036 346.252 26.226 346.772 26.673 L 346.772 26.673 L 346.772 26.673 C 347.292 27.126 347.552 27.803 347.552 28.703 L 347.552 28.703 L 347.552 28.703 C 347.552 29.643 347.325 30.336 346.872 30.783 L 346.872 30.783 L 346.872 30.783 C 346.425 31.236 345.612 31.533 344.432 31.673 L 344.432 31.673 L 342.872 31.823 L 342.872 31.823 C 340.825 32.03 339.325 32.723 338.372 33.903 L 338.372 33.903 L 338.372 33.903 C 337.419 35.083 336.942 36.556 336.942 38.323 L 336.942 38.323 L 336.942 49.243 L 336.942 49.243 C 336.942 50.25 336.629 51.023 336.002 51.563 L 336.002 51.563 L 336.002 51.563 C 335.382 52.097 334.602 52.363 333.662 52.363 L 333.662 52.363 L 333.662 52.363 C 332.729 52.363 331.959 52.097 331.352 51.563 L 331.352 51.563 L 331.352 51.563 C 330.745 51.023 330.442 50.25 330.442 49.243 L 330.442 49.243 L 330.442 29.123 L 330.442 29.123 C 330.442 28.15 330.745 27.403 331.352 26.883 L 331.352 26.883 L 331.352 26.883 C 331.959 26.363 332.712 26.103 333.612 26.103 L 333.612 26.103 L 333.612 26.103 C 334.512 26.103 335.242 26.356 335.802 26.863 L 335.802 26.863 L 335.802 26.863 C 336.355 27.363 336.632 28.08 336.632 29.013 L 336.632 29.013 L 336.632 31.093 L 336.632 31.093 C 337.292 29.573 338.272 28.396 339.572 27.563 L 339.572 27.563 L 339.572 27.563 C 340.872 26.73 342.319 26.26 343.912 26.153 L 343.912 26.153 L 344.642 26.103 Z M 354.258 52.363 L 354.258 52.363 C 353.251 52.363 352.445 52.053 351.838 51.433 L 351.838 51.433 L 351.838 51.433 C 351.231 50.806 350.928 49.99 350.928 48.983 L 350.928 48.983 L 350.928 18.463 L 350.928 18.463 C 350.928 17.456 351.231 16.65 351.838 16.043 L 351.838 16.043 L 351.838 16.043 C 352.445 15.436 353.251 15.133 354.258 15.133 L 354.258 15.133 L 354.258 15.133 C 355.298 15.133 356.121 15.436 356.728 16.043 L 356.728 16.043 L 356.728 16.043 C 357.335 16.65 357.638 17.456 357.638 18.463 L 357.638 18.463 L 357.638 48.983 L 357.638 48.983 C 357.638 49.99 357.335 50.806 356.728 51.433 L 356.728 51.433 L 356.728 51.433 C 356.121 52.053 355.298 52.363 354.258 52.363 L 354.258 52.363 Z M 393.73 54.233 L 395.55 57.153 L 395.55 57.153 C 395.93 57.773 396.12 58.38 396.12 58.973 L 396.12 58.973 L 396.12 58.973 C 396.12 59.766 395.807 60.417 395.18 60.924 L 395.18 60.924 L 395.18 60.924 C 394.56 61.424 393.833 61.674 393 61.674 L 393 61.674 L 393 61.674 C 392.373 61.674 391.783 61.526 391.23 61.233 L 391.23 61.233 L 391.23 61.233 C 390.677 60.94 390.227 60.496 389.88 59.903 L 389.88 59.903 L 386.81 54.863 L 386.81 54.863 C 386.323 54.064 385.69 53.473 384.91 53.093 L 384.91 53.093 L 384.91 53.093 C 384.13 52.713 383.117 52.523 381.87 52.523 L 381.87 52.523 L 381.87 52.523 C 378.297 52.523 375.203 51.76 372.59 50.233 L 372.59 50.233 L 372.59 50.233 C 369.97 48.706 367.95 46.523 366.53 43.683 L 366.53 43.683 L 366.53 43.683 C 365.11 40.836 364.4 37.507 364.4 33.694 L 364.4 33.694 L 364.4 33.694 C 364.4 29.88 365.11 26.563 366.53 23.743 L 366.53 23.743 L 366.53 23.743 C 367.95 20.916 369.97 18.74 372.59 17.213 L 372.59 17.213 L 372.59 17.213 C 375.203 15.686 378.297 14.923 381.87 14.923 L 381.87 14.923 L 381.87 14.923 C 385.403 14.923 388.48 15.686 391.1 17.213 L 391.1 17.213 L 391.1 17.213 C 393.72 18.74 395.74 20.916 397.16 23.743 L 397.16 23.743 L 397.16 23.743 C 398.58 26.563 399.29 29.88 399.29 33.694 L 399.29 33.694 L 399.29 33.694 C 399.29 37.82 398.467 41.366 396.82 44.333 L 396.82 44.333 L 396.82 44.333 C 395.173 47.293 392.823 49.451 389.77 50.803 L 389.77 50.803 L 389.77 50.803 C 391.37 51.356 392.69 52.5 393.73 54.233 L 393.73 54.233 Z M 381.87 47.163 L 381.87 47.163 C 385.23 47.163 387.857 46.003 389.75 43.683 L 389.75 43.683 L 389.75 43.683 C 391.637 41.356 392.58 38.026 392.58 33.694 L 392.58 33.694 L 392.58 33.694 C 392.58 29.36 391.637 26.043 389.75 23.743 L 389.75 23.743 L 389.75 23.743 C 387.857 21.436 385.23 20.283 381.87 20.283 L 381.87 20.283 L 381.87 20.283 C 378.47 20.283 375.827 21.436 373.94 23.743 L 373.94 23.743 L 373.94 23.743 C 372.053 26.043 371.11 29.36 371.11 33.694 L 371.11 33.694 L 371.11 33.694 C 371.11 38.026 372.053 41.356 373.94 43.683 L 373.94 43.683 L 373.94 43.683 C 375.827 46.003 378.47 47.163 381.87 47.163 L 381.87 47.163 Z" style="white-space: pre; fill: rgb(255, 255, 255);"/>
</svg>